<svg width="96" height="24" viewBox="0 0 96 24" fill="none" xmlns="http://www.w3.org/2000/svg">
<path fill-rule="evenodd" clip-rule="evenodd" d="M37.5316 5.44287C36.9583 5.24287 36.2418 5.14287 35.3677 5.14287C35.1362 5.14287 34.9113 5.15581 34.6884 5.16862C34.5801 5.17485 34.4723 5.18105 34.3645 5.18573C34.0206 5.2143 33.7053 5.25715 33.4044 5.30001C33.1034 5.34287 32.8312 5.40001 32.5732 5.45715C32.3153 5.5143 32.1003 5.57144 31.9283 5.62858L32.3009 7.98573C32.6592 7.85715 33.0748 7.75715 33.562 7.68573C34.0493 7.6143 34.5365 7.57144 35.0381 7.57144C35.7832 7.57144 36.3135 7.72858 36.6144 8.02858C36.9154 8.32858 37.073 8.72858 37.073 9.22858V9.50001C36.8867 9.44287 36.6574 9.40001 36.3565 9.37144C36.0555 9.34287 35.7259 9.32858 35.339 9.32858C34.7801 9.32858 34.2356 9.38573 33.7053 9.50001C33.1751 9.6143 32.7022 9.80001 32.3009 10.0429C31.8997 10.2857 31.5701 10.6286 31.3265 11.0429C31.0828 11.4572 30.9682 11.9714 30.9682 12.5714C30.9682 13.2 31.0685 13.7286 31.2835 14.1572C31.4841 14.6 31.785 14.9429 32.1863 15.2143C32.5732 15.4857 33.0461 15.6857 33.5907 15.8C34.1352 15.9143 34.7371 15.9714 35.4107 15.9714C36.4711 15.9714 37.3883 15.9143 38.1334 15.7857C38.8786 15.6572 39.4662 15.5429 39.8818 15.4572V9.37144C39.8818 8.74287 39.8101 8.15715 39.6668 7.62858C39.5092 7.10001 39.2656 6.65715 38.9216 6.28573C38.5777 5.9143 38.1048 5.64287 37.5316 5.44287ZM36.4425 13.7C36.1702 13.7143 35.8979 13.7143 35.6113 13.7143C35.0667 13.7143 34.6511 13.6286 34.3502 13.4429C34.0493 13.2572 33.8916 12.9429 33.8916 12.4857C33.8916 12.2572 33.9489 12.0572 34.0493 11.9C34.1496 11.7429 34.2929 11.6143 34.4792 11.5286C34.6655 11.4429 34.8804 11.3714 35.124 11.3429C35.3677 11.3143 35.6256 11.3 35.8979 11.3C36.0842 11.3 36.2991 11.3143 36.5428 11.3429C36.7721 11.3714 36.9583 11.4 37.073 11.4286V13.6429C36.9154 13.6714 36.7004 13.6857 36.4425 13.7Z" fill="#212221"/>
<path fill-rule="evenodd" clip-rule="evenodd" d="M44.7112 3.71429C45.0551 3.40001 45.227 2.98572 45.227 2.44287C45.227 1.90001 45.0551 1.47144 44.7112 1.17144C44.3672 0.871437 43.9516 0.714294 43.4787 0.714294C43.0058 0.714294 42.5902 0.857152 42.2463 1.17144C41.9024 1.48572 41.7304 1.90001 41.7304 2.44287C41.7304 2.98572 41.9024 3.40001 42.2463 3.71429C42.5902 4.01429 43.0058 4.17144 43.4787 4.17144C43.9516 4.17144 44.3672 4.02858 44.7112 3.71429ZM42.017 15.7572H44.9548V5.42858H42.017V15.7572Z" fill="#212221"/>
<path d="M53.725 8.01429C53.4671 7.94287 53.1518 7.88572 52.7936 7.81429C52.4353 7.74287 52.0627 7.70001 51.6471 7.70001C51.4608 7.70001 51.2459 7.71429 50.9879 7.74287C50.73 7.77144 50.5437 7.81429 50.4004 7.85715V15.7572H47.4626V5.97144C47.9928 5.78572 48.6091 5.61429 49.3256 5.45715C50.0421 5.30001 50.8446 5.21429 51.7188 5.21429C51.8764 5.21429 52.0627 5.22858 52.292 5.24287C52.5213 5.25715 52.7362 5.28572 52.9655 5.32858C53.1948 5.35715 53.4098 5.40001 53.6391 5.44287C53.8683 5.48572 54.0546 5.54287 54.2123 5.61429L53.725 8.01429Z" fill="#212221"/>
<path fill-rule="evenodd" clip-rule="evenodd" d="M65.0461 12.8429C65.2897 12.1714 65.4044 11.4286 65.4044 10.6C65.4044 9.78572 65.3041 9.04287 65.1178 8.40001C64.9171 7.74287 64.6305 7.17144 64.2436 6.70001C63.8567 6.22858 63.3838 5.87144 62.8249 5.61429C62.266 5.35715 61.6068 5.22858 60.8759 5.22858C60.4604 5.22858 60.0878 5.25715 59.7295 5.34286C59.3712 5.41429 59.0273 5.52858 58.6977 5.67144V0.342865L55.7599 2.64286V15.4429C56.0179 15.5286 56.3188 15.6 56.6628 15.6714C57.0067 15.7429 57.365 15.8 57.7376 15.8572C58.1102 15.9143 58.4971 15.9572 58.884 15.9857C59.2709 16.0143 59.6435 16.0286 60.0018 16.0286C60.8616 16.0286 61.6211 15.9 62.2947 15.6429C62.9539 15.3857 63.5271 15.0286 63.9857 14.5572C64.4442 14.0857 64.8025 13.5143 65.0461 12.8429ZM60.317 7.68572C61.7071 7.68572 62.4093 8.62858 62.4093 10.5143C62.4093 11.4143 62.1943 12.1429 61.8074 12.7C61.3918 13.2572 60.79 13.5286 59.9874 13.5286C59.7295 13.5286 59.4859 13.5143 59.2566 13.5C59.1802 13.4905 59.1085 13.4825 59.0416 13.4751C58.9079 13.4603 58.7932 13.4476 58.6977 13.4286V8.10001C58.884 7.97144 59.1133 7.88572 59.4142 7.80001C59.7152 7.72858 60.0161 7.68572 60.317 7.68572Z" fill="#212221"/>
<path fill-rule="evenodd" clip-rule="evenodd" d="M73.0712 5.44287C72.498 5.24287 71.7815 5.14287 70.9073 5.14287C70.6759 5.14287 70.4509 5.15581 70.2281 5.16862C70.1198 5.17485 70.012 5.18105 69.9042 5.18573C69.5602 5.2143 69.245 5.25715 68.944 5.30001C68.6431 5.34287 68.3708 5.40001 68.1129 5.45715C67.8549 5.5143 67.64 5.57144 67.468 5.62858L67.8406 7.98573C68.1988 7.85715 68.6144 7.75715 69.1017 7.68573C69.5889 7.6143 70.0761 7.57144 70.5777 7.57144C71.3229 7.57144 71.8531 7.72858 72.1541 8.02858C72.455 8.32858 72.6126 8.72858 72.6126 9.22858V9.50001C72.4263 9.44287 72.1971 9.40001 71.8961 9.37144C71.5952 9.34287 71.2656 9.32858 70.8786 9.32858C70.3198 9.32858 69.7752 9.38573 69.245 9.50001C68.7147 9.6143 68.2418 9.80001 67.8406 10.0429C67.4393 10.2857 67.1097 10.6286 66.8661 11.0429C66.6225 11.4572 66.5078 11.9714 66.5078 12.5714C66.5078 13.2 66.6082 13.7286 66.8231 14.1572C67.0237 14.6 67.3247 14.9429 67.7259 15.2143C68.1129 15.4857 68.5858 15.6857 69.1303 15.8C69.6749 15.9143 70.2768 15.9714 70.9503 15.9714C72.0108 15.9714 72.9279 15.9143 73.6731 15.7857C74.4183 15.6572 75.0058 15.5429 75.4214 15.4572V9.37144C75.4214 8.74287 75.3498 8.15715 75.2065 7.62858C75.0488 7.10001 74.8052 6.65715 74.4613 6.28573C74.1173 5.9143 73.6444 5.64287 73.0712 5.44287ZM71.9821 13.7C71.7098 13.7143 71.4375 13.7143 71.1509 13.7143C70.6064 13.7143 70.1765 13.6286 69.8898 13.4429C69.5889 13.2572 69.4313 12.9429 69.4313 12.4857C69.4313 12.2572 69.4886 12.0572 69.5889 11.9C69.6892 11.7429 69.8325 11.6143 70.0188 11.5286C70.2051 11.4429 70.4201 11.3714 70.6637 11.3429C70.9073 11.3143 71.1653 11.3 71.4375 11.3C71.6238 11.3 71.8388 11.3143 72.0824 11.3429C72.3117 11.3714 72.498 11.4 72.6126 11.4286V13.6429C72.455 13.6714 72.24 13.6857 71.9821 13.7Z" fill="#212221"/>
<path d="M80.6377 13.6572C81.1823 13.6572 81.5549 13.6 81.7841 13.5C82.0134 13.4 82.1137 13.1857 82.1137 12.8857C82.1137 12.6429 81.9704 12.4429 81.6838 12.2714C81.3972 12.1 80.953 11.9 80.3654 11.6714C79.9069 11.5 79.4913 11.3286 79.1187 11.1429C78.7461 10.9572 78.4308 10.7429 78.1585 10.4857C77.9006 10.2286 77.6856 9.92858 77.5423 9.57144C77.399 9.21429 77.3274 8.78572 77.3274 8.30001C77.3274 7.32858 77.6856 6.55715 78.4165 6.00001C79.133 5.44286 80.1361 5.15715 81.3972 5.15715C82.0278 5.15715 82.6296 5.21429 83.2172 5.32858C83.7904 5.44286 84.249 5.55715 84.5929 5.68572L84.077 7.97144C83.7331 7.85715 83.3605 7.74286 82.9592 7.65715C82.558 7.57144 82.1137 7.51429 81.6122 7.51429C80.695 7.51429 80.2365 7.77144 80.2365 8.28572C80.2365 8.40001 80.2508 8.51429 80.2938 8.60001C80.3368 8.68572 80.4084 8.78572 80.5374 8.87144C80.652 8.95715 80.8097 9.04286 81.0246 9.14286C81.2253 9.24286 81.4832 9.35715 81.7985 9.47144C82.4434 9.71429 82.9736 9.94286 83.3892 10.1714C83.8047 10.4 84.1343 10.6572 84.378 10.9143C84.6216 11.1857 84.7936 11.4857 84.8939 11.8C84.9942 12.1286 85.0372 12.5 85.0372 12.9429C85.0372 13.9572 84.6502 14.7286 83.8907 15.2572C83.1169 15.7857 82.0278 16.0429 80.6234 16.0429C79.7062 16.0429 78.9324 15.9572 78.3305 15.8C77.7143 15.6429 77.2987 15.5143 77.0551 15.4L77.5423 13.0286C78.0439 13.2286 78.5598 13.3857 79.0757 13.4857C79.6059 13.6 80.1218 13.6572 80.6377 13.6572Z" fill="#212221"/>
<path fill-rule="evenodd" clip-rule="evenodd" d="M86.4989 8.25715C86.2123 8.95715 86.069 9.75715 86.069 10.6714C86.069 11.4286 86.1693 12.1429 86.4272 12.7714C86.6422 13.4286 86.9718 14 87.4304 14.4714C87.8889 14.9429 88.4622 15.3286 89.15 15.6C89.8379 15.8714 90.6547 16.0143 91.5862 16.0143C91.9588 16.0143 92.3171 16 92.6897 15.9572C93.0479 15.9286 93.4062 15.8714 93.7215 15.8143C94.0367 15.7572 94.3377 15.7 94.5956 15.6143C94.8536 15.5286 95.0685 15.4572 95.2262 15.3714L94.8249 13C94.4953 13.1429 94.0654 13.2572 93.5495 13.3572C93.0336 13.4572 92.5034 13.5 91.9588 13.5C91.1276 13.5 90.4541 13.3286 89.9525 12.9714C89.451 12.6286 89.1787 12.1429 89.107 11.5429H95.7707C95.785 11.3857 95.7994 11.2 95.8137 11C95.828 10.8 95.828 10.6143 95.828 10.4429C95.828 8.70001 95.4125 7.38573 94.5526 6.48573C93.6928 5.58573 92.532 5.14287 91.056 5.14287C90.4254 5.14287 89.8092 5.25715 89.2073 5.50001C88.6055 5.74287 88.0752 6.08573 87.6167 6.54287C87.1581 7.00001 86.7855 7.57144 86.4989 8.25715ZM92.833 8.82858C92.9046 9.07144 92.9476 9.3143 92.9619 9.55715V9.57144H89.0927C89.1357 9.3143 89.193 9.07144 89.279 8.82858C89.365 8.58573 89.4796 8.37144 89.6373 8.18573C89.7949 8.00001 89.9812 7.85715 90.2248 7.74287C90.4541 7.62858 90.7407 7.57144 91.0703 7.57144C91.4142 7.57144 91.7009 7.62858 91.9301 7.74287C92.1594 7.87144 92.3457 8.0143 92.5034 8.20001C92.6467 8.38573 92.7613 8.58573 92.833 8.82858Z" fill="#212221"/>
<path fill-rule="evenodd" clip-rule="evenodd" d="M0.128967 16.1857L9.32915 23.9143L22.5992 13.5L22.5849 0.0857086L9.4008 10.4286L0.128967 2.64285V16.1857ZM18.9449 11.7429L9.4008 19.2286L3.78324 14.5V10.4714L9.32915 15.1286L18.9449 7.58571V11.7429Z" fill="#FF6448"/>
</svg>
