<svg width="9" height="12" viewBox="0 0 9 12" fill="none" xmlns="http://www.w3.org/2000/svg">
<path fill-rule="evenodd" clip-rule="evenodd" d="M7.78384 5.048H7.5393V2.875C7.5393 1.29023 6.17641 0 4.50036 0C2.82505 0 1.46143 1.28954 1.46143 2.875V5.048H1.21689C0.5453 5.048 0 5.56336 0 6.19924V10.8488C0 11.4848 0.54457 12 1.21689 12H7.78311C8.4547 12 9 11.4848 9 10.8488V6.19855C9 5.56336 8.45543 5.048 7.78384 5.048ZM2.41954 2.875C2.41954 1.78919 3.35264 0.906423 4.50037 0.906423C5.64809 0.906423 6.58119 1.78919 6.58119 2.875V5.048H2.41954V2.875ZM4.50036 9.78177C3.84173 9.78177 3.30702 9.27659 3.30702 8.6528C3.30702 8.0297 3.841 7.52383 4.50036 7.52383C5.159 7.52383 5.69371 8.02901 5.69371 8.6528C5.69371 9.27659 5.159 9.78177 4.50036 9.78177Z" fill="#FFA03D"/>
</svg>
