<svg width="16" height="16" viewBox="0 0 16 16" fill="none" xmlns="http://www.w3.org/2000/svg">
<rect opacity="0.01" width="16" height="16" fill="#D8D8D8"/>
<path fill-rule="evenodd" clip-rule="evenodd" d="M10.1764 0L9.54712 0.0117333H2.82333C1.93611 0.0117333 1.21783 0.657493 1.21783 1.45408V14.5574C1.21783 15.3542 1.93611 16 2.82333 16H13.1767C14.0639 16 14.7822 15.3542 14.7822 14.5574V4.79744L14.7831 4.23168L10.1764 0ZM13.3546 14.5574C13.3546 14.6458 13.2742 14.7174 13.1757 14.7174H2.82333C2.72414 14.7174 2.64441 14.6458 2.64441 14.5574V1.45408C2.64441 1.36661 2.72414 1.29493 2.82333 1.29493H9.54712V4.79744H13.3546V14.5574Z" fill="#26C281"/>
<path fill-rule="evenodd" clip-rule="evenodd" d="M9.60454 12.845H11.5733L8.98427 9.40673L11.1367 6.54828H9.16698L8 8.09921L6.83207 6.54828H4.86234L7.01478 9.40673L4.42596 12.845H8.70546L8.00925 11.8283H7.16024L8 10.7143L9.60454 12.845Z" fill="#26C281"/>
</svg>
